<svg width="373" height="6" viewBox="0 0 373 6" fill="none" xmlns="http://www.w3.org/2000/svg">
<g clip-path="url(#clip0_1036_2191)">
<path d="M0 2.7648C0 1.23784 1.23784 0 2.7648 0H369.968C371.495 0 372.733 1.23784 372.733 2.7648C372.733 4.29176 371.495 5.5296 369.968 5.5296H2.76481C1.23785 5.5296 0 4.29176 0 2.7648Z" fill="#F5F5F4"/>
<path d="M0 2.7648C0 1.23784 1.23784 0 2.7648 0H5.92154C7.4485 0 8.68634 1.23784 8.68634 2.7648C8.68634 4.29176 7.4485 5.5296 5.92154 5.5296H2.7648C1.23784 5.5296 0 4.29176 0 2.7648Z" fill="#FFB900"/>
</g>
<defs>
<clipPath id="clip0_1036_2191">
<path d="M0 2.7648C0 1.23784 1.23784 0 2.7648 0H369.968C371.495 0 372.733 1.23784 372.733 2.7648C372.733 4.29176 371.495 5.5296 369.968 5.5296H2.76481C1.23785 5.5296 0 4.29176 0 2.7648Z" fill="white"/>
</clipPath>
</defs>
</svg>
