<svg width="124" height="21" viewBox="0 0 124 21" fill="none" xmlns="http://www.w3.org/2000/svg">
<path d="M9.68269 1.92764C9.7195 1.85327 9.77636 1.79067 9.84687 1.7469C9.91737 1.70313 9.9987 1.67993 10.0817 1.67993C10.1647 1.67993 10.246 1.70313 10.3165 1.7469C10.387 1.79067 10.4439 1.85327 10.4807 1.92764L12.4211 5.858C12.5489 6.11669 12.7376 6.3405 12.971 6.51022C13.2043 6.67994 13.4754 6.7905 13.7609 6.8324L18.1003 7.46744C18.1826 7.47936 18.2598 7.51404 18.3233 7.56757C18.3869 7.6211 18.4342 7.69134 18.4599 7.77035C18.4856 7.84936 18.4886 7.93398 18.4687 8.01465C18.4488 8.09531 18.4068 8.1688 18.3473 8.2268L15.209 11.2827C15.0021 11.4844 14.8472 11.7334 14.7578 12.0082C14.6684 12.283 14.6471 12.5754 14.6958 12.8602L15.4367 17.1778C15.4512 17.26 15.4423 17.3446 15.4111 17.422C15.3798 17.4994 15.3274 17.5664 15.2599 17.6155C15.1924 17.6645 15.1124 17.6936 15.0292 17.6994C14.9459 17.7052 14.8627 17.6875 14.789 17.6482L10.9099 15.6087C10.6543 15.4745 10.37 15.4044 10.0813 15.4044C9.79258 15.4044 9.5082 15.4745 9.25261 15.6087L5.37433 17.6482C5.30069 17.6872 5.21758 17.7048 5.13447 17.6989C5.05135 17.6929 4.97156 17.6638 4.90418 17.6148C4.83679 17.5658 4.78451 17.4989 4.75328 17.4216C4.72205 17.3444 4.71313 17.2599 4.72753 17.1778L5.46757 12.8611C5.51645 12.5761 5.49527 12.2835 5.40586 12.0085C5.31644 11.7335 5.16148 11.4845 4.95433 11.2827L1.81609 8.22764C1.75611 8.16971 1.7136 8.09609 1.69342 8.01518C1.67323 7.93427 1.67617 7.84932 1.70191 7.77C1.72765 7.69068 1.77515 7.62019 1.839 7.56655C1.90285 7.51291 1.98048 7.47828 2.06305 7.4666L6.40165 6.8324C6.68746 6.79082 6.95889 6.68041 7.19258 6.51067C7.42626 6.34093 7.6152 6.11695 7.74313 5.858L9.68269 1.92764Z" fill="#FE9A00" stroke="#FE9A00" stroke-width="1.68" stroke-linecap="round" stroke-linejoin="round"/>
<g clip-path="url(#clip0_1036_2048)">
<path d="M35.6024 1.92764C35.6392 1.85327 35.696 1.79067 35.7665 1.7469C35.837 1.70313 35.9184 1.67993 36.0014 1.67993C36.0843 1.67993 36.1657 1.70313 36.2362 1.7469C36.3067 1.79067 36.3636 1.85327 36.4004 1.92764L38.3408 5.858C38.4686 6.11669 38.6573 6.3405 38.8906 6.51022C39.124 6.67994 39.3951 6.7905 39.6806 6.8324L44.02 7.46744C44.1022 7.47936 44.1795 7.51404 44.243 7.56757C44.3066 7.6211 44.3538 7.69134 44.3795 7.77035C44.4052 7.84936 44.4083 7.93398 44.3884 8.01465C44.3685 8.09531 44.3265 8.1688 44.267 8.2268L41.1287 11.2827C40.9218 11.4844 40.7669 11.7334 40.6775 12.0082C40.5881 12.283 40.5668 12.5754 40.6155 12.8602L41.3564 17.1778C41.3709 17.26 41.362 17.3446 41.3307 17.422C41.2995 17.4994 41.2471 17.5664 41.1796 17.6155C41.1121 17.6645 41.0321 17.6936 40.9489 17.6994C40.8656 17.7052 40.7824 17.6875 40.7087 17.6482L36.8296 15.6087C36.574 15.4745 36.2896 15.4044 36.0009 15.4044C35.7123 15.4044 35.4279 15.4745 35.1723 15.6087L31.294 17.6482C31.2204 17.6872 31.1373 17.7048 31.0541 17.6989C30.971 17.6929 30.8912 17.6638 30.8239 17.6148C30.7565 17.5658 30.7042 17.4989 30.673 17.4216C30.6417 17.3444 30.6328 17.2599 30.6472 17.1778L31.3872 12.8611C31.4361 12.5761 31.415 12.2835 31.3255 12.0085C31.2361 11.7335 31.0812 11.4845 30.874 11.2827L27.7358 8.22764C27.6758 8.16971 27.6333 8.09609 27.6131 8.01518C27.5929 7.93427 27.5959 7.84932 27.6216 7.77C27.6473 7.69068 27.6948 7.62019 27.7587 7.56655C27.8225 7.51291 27.9002 7.47828 27.9827 7.4666L32.3213 6.8324C32.6071 6.79082 32.8786 6.68041 33.1123 6.51067C33.3459 6.34093 33.5349 6.11695 33.6628 5.858L35.6024 1.92764Z" fill="#FE9A00" stroke="#FE9A00" stroke-width="1.68" stroke-linecap="round" stroke-linejoin="round"/>
</g>
<g clip-path="url(#clip1_1036_2048)">
<path d="M61.5216 1.92764C61.5584 1.85327 61.6152 1.79067 61.6857 1.7469C61.7562 1.70313 61.8376 1.67993 61.9206 1.67993C62.0035 1.67993 62.0849 1.70313 62.1554 1.7469C62.2259 1.79067 62.2827 1.85327 62.3196 1.92764L64.26 5.858C64.3878 6.11669 64.5765 6.3405 64.8098 6.51022C65.0432 6.67994 65.3143 6.7905 65.5998 6.8324L69.9392 7.46744C70.0214 7.47936 70.0987 7.51404 70.1622 7.56757C70.2257 7.6211 70.273 7.69134 70.2987 7.77035C70.3244 7.84936 70.3275 7.93398 70.3076 8.01465C70.2877 8.09531 70.2456 8.1688 70.1862 8.2268L67.0479 11.2827C66.841 11.4844 66.6861 11.7334 66.5967 12.0082C66.5073 12.283 66.486 12.5754 66.5347 12.8602L67.2756 17.1778C67.2901 17.26 67.2812 17.3446 67.2499 17.422C67.2187 17.4994 67.1663 17.5664 67.0988 17.6155C67.0312 17.6645 66.9513 17.6936 66.868 17.6994C66.7848 17.7052 66.7016 17.6875 66.6279 17.6482L62.7488 15.6087C62.4932 15.4745 62.2088 15.4044 61.9201 15.4044C61.6314 15.4044 61.3471 15.4745 61.0915 15.6087L57.2132 17.6482C57.1396 17.6872 57.0564 17.7048 56.9733 17.6989C56.8902 17.6929 56.8104 17.6638 56.743 17.6148C56.6757 17.5658 56.6234 17.4989 56.5921 17.4216C56.5609 17.3444 56.552 17.2599 56.5664 17.1778L57.3064 12.8611C57.3553 12.5761 57.3341 12.2835 57.2447 12.0085C57.1553 11.7335 57.0003 11.4845 56.7932 11.2827L53.655 8.22764C53.595 8.16971 53.5525 8.09609 53.5323 8.01518C53.5121 7.93427 53.515 7.84932 53.5408 7.77C53.5665 7.69068 53.614 7.62019 53.6779 7.56655C53.7417 7.51291 53.8193 7.47828 53.9019 7.4666L58.2405 6.8324C58.5263 6.79082 58.7978 6.68041 59.0314 6.51067C59.2651 6.34093 59.4541 6.11695 59.582 5.858L61.5216 1.92764Z" fill="#FE9A00" stroke="#FE9A00" stroke-width="1.68" stroke-linecap="round" stroke-linejoin="round"/>
</g>
<path d="M87.4415 1.92764C87.4783 1.85327 87.5352 1.79067 87.6057 1.7469C87.6762 1.70313 87.7575 1.67993 87.8405 1.67993C87.9235 1.67993 88.0048 1.70313 88.0753 1.7469C88.1458 1.79067 88.2027 1.85327 88.2395 1.92764L90.1799 5.858C90.3077 6.11669 90.4964 6.3405 90.7298 6.51022C90.9631 6.67994 91.2342 6.7905 91.5197 6.8324L95.8591 7.46744C95.9413 7.47936 96.0186 7.51404 96.0821 7.56757C96.1457 7.6211 96.193 7.69134 96.2187 7.77035C96.2443 7.84936 96.2474 7.93398 96.2275 8.01465C96.2076 8.09531 96.1656 8.1688 96.1061 8.2268L92.9678 11.2827C92.7609 11.4844 92.606 11.7334 92.5166 12.0082C92.4272 12.283 92.4059 12.5754 92.4546 12.8602L93.1955 17.1778C93.21 17.26 93.2011 17.3446 93.1699 17.422C93.1386 17.4994 93.0862 17.5664 93.0187 17.6155C92.9512 17.6645 92.8712 17.6936 92.788 17.6994C92.7047 17.7052 92.6215 17.6875 92.5478 17.6482L88.6687 15.6087C88.4131 15.4745 88.1287 15.4044 87.8401 15.4044C87.5514 15.4044 87.267 15.4745 87.0114 15.6087L83.1331 17.6482C83.0595 17.6872 82.9764 17.7048 82.8933 17.6989C82.8101 17.6929 82.7304 17.6638 82.663 17.6148C82.5956 17.5658 82.5433 17.4989 82.5121 17.4216C82.4808 17.3444 82.4719 17.2599 82.4863 17.1778L83.2264 12.8611C83.2752 12.5761 83.2541 12.2835 83.1646 12.0085C83.0752 11.7335 82.9203 11.4845 82.7131 11.2827L79.5749 8.22764C79.5149 8.16971 79.4724 8.09609 79.4522 8.01518C79.432 7.93427 79.435 7.84932 79.4607 7.77C79.4864 7.69068 79.5339 7.62019 79.5978 7.56655C79.6616 7.51291 79.7393 7.47828 79.8218 7.4666L84.1604 6.8324C84.4463 6.79082 84.7177 6.68041 84.9514 6.51067C85.1851 6.34093 85.374 6.11695 85.5019 5.858L87.4415 1.92764Z" fill="#FE9A00" stroke="#FE9A00" stroke-width="1.68" stroke-linecap="round" stroke-linejoin="round"/>
<path d="M113.361 1.9274C113.398 1.85303 113.455 1.79042 113.526 1.74665C113.596 1.70288 113.677 1.67969 113.76 1.67969C113.843 1.67969 113.925 1.70288 113.995 1.74665C114.066 1.79042 114.123 1.85303 114.159 1.9274L116.1 5.85776C116.228 6.11645 116.416 6.34026 116.65 6.50998C116.883 6.6797 117.154 6.79025 117.44 6.83216L121.779 7.4672C121.861 7.47911 121.939 7.51379 122.002 7.56732C122.066 7.62086 122.113 7.6911 122.139 7.77011C122.164 7.84912 122.167 7.93374 122.147 8.0144C122.128 8.09507 122.085 8.16856 122.026 8.22656L118.888 11.2825C118.681 11.4842 118.526 11.7331 118.437 12.0079C118.347 12.2827 118.326 12.5751 118.375 12.86L119.115 17.1776C119.13 17.2598 119.121 17.3444 119.09 17.4218C119.059 17.4992 119.006 17.5662 118.939 17.6152C118.871 17.6643 118.791 17.6934 118.708 17.6991C118.625 17.7049 118.541 17.6872 118.468 17.648L114.589 15.6085C114.333 15.4743 114.049 15.4041 113.76 15.4041C113.471 15.4041 113.187 15.4743 112.931 15.6085L109.053 17.648C108.979 17.687 108.896 17.7045 108.813 17.6986C108.73 17.6927 108.65 17.6636 108.583 17.6146C108.515 17.5656 108.463 17.4986 108.432 17.4214C108.401 17.3441 108.392 17.2597 108.406 17.1776L109.146 12.8608C109.195 12.5759 109.174 12.2833 109.085 12.0083C108.995 11.7333 108.84 11.4842 108.633 11.2825L105.495 8.2274C105.435 8.16947 105.392 8.09585 105.372 8.01494C105.352 7.93403 105.355 7.84908 105.381 7.76976C105.406 7.69044 105.454 7.61994 105.518 7.5663C105.582 7.51266 105.659 7.47803 105.742 7.46636L110.08 6.83216C110.366 6.79058 110.638 6.68017 110.871 6.51043C111.105 6.34069 111.294 6.11671 111.422 5.85776L113.361 1.9274Z" fill="#FE9A00" stroke="#FE9A00" stroke-width="1.68" stroke-linecap="round" stroke-linejoin="round"/>
<defs>
<clipPath id="clip0_1036_2048">
<rect width="20.16" height="20.16" fill="white" transform="translate(25.9199 0.000244141)"/>
</clipPath>
<clipPath id="clip1_1036_2048">
<rect width="20.16" height="20.16" fill="white" transform="translate(51.8401 0.000244141)"/>
</clipPath>
</defs>
</svg>
