<svg width="47" height="47" viewBox="0 0 47 47" fill="none" xmlns="http://www.w3.org/2000/svg">
<g opacity="0.3" clip-path="url(#clip0_750_182)">
<path d="M30.5982 36.6054L29.9815 22.6269L36.7272 17.878C39.6182 15.8428 41.0097 12.7013 40.4739 10.9166C38.9745 9.81028 35.5477 10.0608 32.6567 12.096L25.9111 16.8449L12.9595 11.5501C12.167 11.2432 11.4531 11.4576 11.0106 12.0573L10.3754 12.7928C9.90432 13.5568 9.9259 14.4063 10.4972 15.0131L18.2018 22.2722L14.0618 26.6279L9.13562 25.7721L7.20829 27.1289L11.564 31.2689L13.9924 36.7656L15.9197 35.4088L16.7755 30.4825L22.2722 28.0542L26.5076 37.7555C26.8861 38.498 27.6787 38.8048 28.5567 38.619L29.4348 38.4332C30.1772 38.0547 30.6198 37.4549 30.5982 36.6054Z" stroke="#00B70D" stroke-width="3.33333" stroke-linecap="round" stroke-linejoin="round"/>
</g>
<defs>
<clipPath id="clip0_750_182">
<rect width="40" height="40" fill="white" transform="translate(6.84613) rotate(9.85486)"/>
</clipPath>
</defs>
</svg>
