<svg width="37" height="34" viewBox="0 0 37 34" fill="none" xmlns="http://www.w3.org/2000/svg">
<g opacity="0.3" clip-path="url(#clip0_750_179)">
<path d="M24.3731 20.8402L16.9002 19.4287C16.4934 19.3519 16.11 19.1815 15.7805 18.9308C15.4509 18.6802 15.1843 18.3562 15.0017 17.9847L11.6463 11.1598L19.1192 12.5713C19.5261 12.6481 19.9094 12.8185 20.2389 13.0692C20.5685 13.3198 20.8351 13.6438 21.0177 14.0153L24.3731 20.8402Z" stroke="#FF5900" stroke-width="2.66667" stroke-linecap="round" stroke-linejoin="round"/>
<path d="M4.79795 17.7963C5.79003 25.093 12.5094 30.2039 19.806 29.2118C27.1027 28.2197 32.2136 21.5003 31.2215 14.2037C30.2294 6.90702 23.5101 1.79615 16.2134 2.78823C8.91674 3.78031 3.80587 10.4997 4.79795 17.7963Z" stroke="#FF5900" stroke-width="2.66667" stroke-linecap="round" stroke-linejoin="round"/>
</g>
<defs>
<clipPath id="clip0_750_179">
<rect width="32" height="32" fill="white" transform="translate(31.7083 -2.00971) rotate(82.2573)"/>
</clipPath>
</defs>
</svg>
