<svg width="18" height="18" viewBox="0 0 18 18" fill="none" xmlns="http://www.w3.org/2000/svg">
<path d="M11.6146 14.5203V2.90427C11.6146 2.51918 11.4617 2.14985 11.1894 1.87755C10.9171 1.60525 10.5477 1.45227 10.1626 1.45227H7.25864C6.87355 1.45227 6.50422 1.60525 6.23192 1.87755C5.95962 2.14985 5.80664 2.51918 5.80664 2.90427V14.5203" stroke="#00B70D" stroke-width="1.64657" stroke-linecap="round" stroke-linejoin="round"/>
<path d="M14.5187 4.35614H2.90268C2.10077 4.35614 1.45068 5.00622 1.45068 5.80814V13.0681C1.45068 13.8701 2.10077 14.5201 2.90268 14.5201H14.5187C15.3206 14.5201 15.9707 13.8701 15.9707 13.0681V5.80814C15.9707 5.00622 15.3206 4.35614 14.5187 4.35614Z" stroke="#00B70D" stroke-width="1.64657" stroke-linecap="round" stroke-linejoin="round"/>
</svg>
