<svg width="25" height="25" viewBox="0 0 25 25" fill="none" xmlns="http://www.w3.org/2000/svg">
<path d="M16.1311 20.167V4.0337C16.1311 3.49884 15.9186 2.9859 15.5405 2.6077C15.1623 2.2295 14.6493 2.01703 14.1145 2.01703H10.0811C9.54627 2.01703 9.03332 2.2295 8.65512 2.6077C8.27692 2.9859 8.06445 3.49884 8.06445 4.0337V20.167" stroke="#00B70D" stroke-width="2.2869" stroke-linecap="round" stroke-linejoin="round"/>
<path d="M20.1646 6.05017H4.03132C2.91754 6.05017 2.01465 6.95306 2.01465 8.06684V18.1502C2.01465 19.2639 2.91754 20.1668 4.03132 20.1668H20.1646C21.2784 20.1668 22.1813 19.2639 22.1813 18.1502V8.06684C22.1813 6.95306 21.2784 6.05017 20.1646 6.05017Z" stroke="#00B70D" stroke-width="2.2869" stroke-linecap="round" stroke-linejoin="round"/>
</svg>
