<svg width="56" height="56" viewBox="0 0 56 56" fill="none" xmlns="http://www.w3.org/2000/svg">
<g filter="url(#filter0_dd_303_1473)">
<path d="M12 18C12 9.16344 19.1634 2 28 2C36.8366 2 44 9.16344 44 18C44 26.8366 36.8366 34 28 34C19.1634 34 12 26.8366 12 18Z" fill="#00B70D" shape-rendering="crispEdges"/>
<path d="M22 16.0001C22 15.6465 22.1405 15.3073 22.3905 15.0573C22.6406 14.8072 22.9797 14.6667 23.3333 14.6667H23.9533C24.1728 14.6668 24.3889 14.6126 24.5824 14.5091C24.7759 14.4056 24.9409 14.256 25.0627 14.0734L25.604 13.2601C25.7258 13.0775 25.8908 12.9279 26.0843 12.8244C26.2778 12.7209 26.4939 12.6667 26.7133 12.6667H29.2867C29.5061 12.6667 29.7222 12.7209 29.9157 12.8244C30.1092 12.9279 30.2742 13.0775 30.396 13.2601L30.9373 14.0734C31.0591 14.256 31.2241 14.4056 31.4176 14.5091C31.6111 14.6126 31.8272 14.6668 32.0467 14.6667H32.6667C33.0203 14.6667 33.3594 14.8072 33.6095 15.0573C33.8595 15.3073 34 15.6465 34 16.0001V22.0001C34 22.3537 33.8595 22.6928 33.6095 22.9429C33.3594 23.1929 33.0203 23.3334 32.6667 23.3334H23.3333C22.9797 23.3334 22.6406 23.1929 22.3905 22.9429C22.1405 22.6928 22 22.3537 22 22.0001V16.0001Z" stroke="white" stroke-width="1.33333" stroke-linecap="round" stroke-linejoin="round"/>
<path d="M30 18.6667C30 19.1972 29.7893 19.7059 29.4142 20.081C29.0391 20.456 28.5304 20.6667 28 20.6667C27.4696 20.6667 26.9609 20.456 26.5858 20.081C26.2107 19.7059 26 19.1972 26 18.6667C26 18.1363 26.2107 17.6276 26.5858 17.2525C26.9609 16.8775 27.4696 16.6667 28 16.6667C28.5304 16.6667 29.0391 16.8775 29.4142 17.2525C29.7893 17.6276 30 18.1363 30 18.6667Z" stroke="white" stroke-width="1.33333" stroke-linecap="round" stroke-linejoin="round"/>
</g>
<defs>
<filter id="filter0_dd_303_1473" x="0" y="0" width="56" height="56" filterUnits="userSpaceOnUse" color-interpolation-filters="sRGB">
<feFlood flood-opacity="0" result="BackgroundImageFix"/>
<feColorMatrix in="SourceAlpha" type="matrix" values="0 0 0 0 0 0 0 0 0 0 0 0 0 0 0 0 0 0 127 0" result="hardAlpha"/>
<feMorphology radius="4" operator="erode" in="SourceAlpha" result="effect1_dropShadow_303_1473"/>
<feOffset dy="4"/>
<feGaussianBlur stdDeviation="3"/>
<feComposite in2="hardAlpha" operator="out"/>
<feColorMatrix type="matrix" values="0 0 0 0 0 0 0 0 0 0 0 0 0 0 0 0 0 0 0.1 0"/>
<feBlend mode="normal" in2="BackgroundImageFix" result="effect1_dropShadow_303_1473"/>
<feColorMatrix in="SourceAlpha" type="matrix" values="0 0 0 0 0 0 0 0 0 0 0 0 0 0 0 0 0 0 127 0" result="hardAlpha"/>
<feMorphology radius="3" operator="erode" in="SourceAlpha" result="effect2_dropShadow_303_1473"/>
<feOffset dy="10"/>
<feGaussianBlur stdDeviation="7.5"/>
<feComposite in2="hardAlpha" operator="out"/>
<feColorMatrix type="matrix" values="0 0 0 0 0 0 0 0 0 0 0 0 0 0 0 0 0 0 0.1 0"/>
<feBlend mode="normal" in2="effect1_dropShadow_303_1473" result="effect2_dropShadow_303_1473"/>
<feBlend mode="normal" in="SourceGraphic" in2="effect2_dropShadow_303_1473" result="shape"/>
</filter>
</defs>
</svg>
