<svg width="40" height="40" viewBox="0 0 40 40" fill="none" xmlns="http://www.w3.org/2000/svg">
<rect width="40" height="40" rx="10.368" fill="#154212" fill-opacity="0.1"/>
<path d="M18.6667 18.6667C17.75 18.6667 16.9653 18.3403 16.3125 17.6875C15.6597 17.0347 15.3333 16.25 15.3333 15.3333C15.3333 14.4167 15.6597 13.6319 16.3125 12.9792C16.9653 12.3264 17.75 12 18.6667 12C19.5833 12 20.3681 12.3264 21.0208 12.9792C21.6736 13.6319 22 14.4167 22 15.3333C22 16.25 21.6736 17.0347 21.0208 17.6875C20.3681 18.3403 19.5833 18.6667 18.6667 18.6667ZM12 25.3333V23C12 22.5417 12.1181 22.1111 12.3542 21.7083C12.5903 21.3056 12.9167 21 13.3333 20.7917C14.0417 20.4306 14.8403 20.125 15.7292 19.875C16.6181 19.625 17.5972 19.5 18.6667 19.5C18.7778 19.5 18.875 19.5 18.9583 19.5C19.0417 19.5 19.125 19.5139 19.2083 19.5417C19.0972 19.7917 19.0035 20.0521 18.9271 20.3229C18.8507 20.5938 18.7917 20.875 18.75 21.1667H18.6667C17.6806 21.1667 16.7951 21.2917 16.0104 21.5417C15.2257 21.7917 14.5833 22.0417 14.0833 22.2917C13.9583 22.3611 13.8576 22.4583 13.7812 22.5833C13.7049 22.7083 13.6667 22.8472 13.6667 23V23.6667H18.9167C19 23.9583 19.1111 24.2465 19.25 24.5312C19.3889 24.816 19.5417 25.0833 19.7083 25.3333H12ZM23.6667 26.1667L23.4167 24.9167C23.25 24.8472 23.0938 24.7743 22.9479 24.6979C22.8021 24.6215 22.6528 24.5278 22.5 24.4167L21.2917 24.7917L20.4583 23.375L21.4167 22.5417C21.3889 22.3472 21.375 22.1667 21.375 22C21.375 21.8333 21.3889 21.6528 21.4167 21.4583L20.4583 20.625L21.2917 19.2083L22.5 19.5833C22.6528 19.4722 22.8021 19.3785 22.9479 19.3021C23.0938 19.2257 23.25 19.1528 23.4167 19.0833L23.6667 17.8333H25.3333L25.5833 19.0833C25.75 19.1528 25.9062 19.2292 26.0521 19.3125C26.1979 19.3958 26.3472 19.5 26.5 19.625L27.7083 19.2083L28.5417 20.6667L27.5833 21.5C27.6111 21.6667 27.625 21.8403 27.625 22.0208C27.625 22.2014 27.6111 22.375 27.5833 22.5417L28.5417 23.375L27.7083 24.7917L26.5 24.4167C26.3472 24.5278 26.1979 24.6215 26.0521 24.6979C25.9062 24.7743 25.75 24.8472 25.5833 24.9167L25.3333 26.1667H23.6667ZM24.5 23.6667C24.9583 23.6667 25.3507 23.5035 25.6771 23.1771C26.0035 22.8507 26.1667 22.4583 26.1667 22C26.1667 21.5417 26.0035 21.1493 25.6771 20.8229C25.3507 20.4965 24.9583 20.3333 24.5 20.3333C24.0417 20.3333 23.6493 20.4965 23.3229 20.8229C22.9965 21.1493 22.8333 21.5417 22.8333 22C22.8333 22.4583 22.9965 22.8507 23.3229 23.1771C23.6493 23.5035 24.0417 23.6667 24.5 23.6667ZM18.6667 17C19.125 17 19.5174 16.8368 19.8438 16.5104C20.1701 16.184 20.3333 15.7917 20.3333 15.3333C20.3333 14.875 20.1701 14.4826 19.8438 14.1562C19.5174 13.8299 19.125 13.6667 18.6667 13.6667C18.2083 13.6667 17.816 13.8299 17.4896 14.1562C17.1632 14.4826 17 14.875 17 15.3333C17 15.7917 17.1632 16.184 17.4896 16.5104C17.816 16.8368 18.2083 17 18.6667 17Z" fill="#6B6D69"/>
</svg>
