<svg width="40" height="40" viewBox="0 0 40 40" fill="none" xmlns="http://www.w3.org/2000/svg">
<rect width="40" height="40" rx="20" fill="white"/>
<path d="M18.3957 19.5834C17.479 19.5834 16.6943 19.257 16.0415 18.6042C15.3887 17.9515 15.0623 17.1667 15.0623 16.2501C15.0623 15.3334 15.3887 14.5487 16.0415 13.8959C16.6943 13.2431 17.479 12.9167 18.3957 12.9167C19.3123 12.9167 20.0971 13.2431 20.7498 13.8959C21.4026 14.5487 21.729 15.3334 21.729 16.2501C21.729 17.1667 21.4026 17.9515 20.7498 18.6042C20.0971 19.257 19.3123 19.5834 18.3957 19.5834ZM11.729 26.2501V23.9167C11.729 23.4584 11.8471 23.0279 12.0832 22.6251C12.3193 22.2223 12.6457 21.9167 13.0623 21.7084C13.7707 21.3473 14.5693 21.0417 15.4582 20.7917C16.3471 20.5417 17.3262 20.4167 18.3957 20.4167C18.5068 20.4167 18.604 20.4167 18.6873 20.4167C18.7707 20.4167 18.854 20.4306 18.9373 20.4584C18.8262 20.7084 18.7325 20.9688 18.6561 21.2397C18.5797 21.5105 18.5207 21.7917 18.479 22.0834H18.3957C17.4096 22.0834 16.5241 22.2084 15.7394 22.4584C14.9547 22.7084 14.3123 22.9584 13.8123 23.2084C13.6873 23.2779 13.5866 23.3751 13.5103 23.5001C13.4339 23.6251 13.3957 23.764 13.3957 23.9167V24.5834H18.6457C18.729 24.8751 18.8401 25.1633 18.979 25.448C19.1179 25.7327 19.2707 26.0001 19.4373 26.2501H11.729ZM23.3957 27.0834L23.1457 25.8334C22.979 25.764 22.8228 25.6911 22.6769 25.6147C22.5311 25.5383 22.3818 25.4445 22.229 25.3334L21.0207 25.7084L20.1873 24.2917L21.1457 23.4584C21.1179 23.264 21.104 23.0834 21.104 22.9167C21.104 22.7501 21.1179 22.5695 21.1457 22.3751L20.1873 21.5417L21.0207 20.1251L22.229 20.5001C22.3818 20.389 22.5311 20.2952 22.6769 20.2188C22.8228 20.1424 22.979 20.0695 23.1457 20.0001L23.3957 18.7501H25.0623L25.3123 20.0001C25.479 20.0695 25.6353 20.1459 25.7811 20.2292C25.9269 20.3126 26.0762 20.4167 26.229 20.5417L27.4373 20.1251L28.2707 21.5834L27.3123 22.4167C27.3401 22.5834 27.354 22.757 27.354 22.9376C27.354 23.1181 27.3401 23.2917 27.3123 23.4584L28.2707 24.2917L27.4373 25.7084L26.229 25.3334C26.0762 25.4445 25.9269 25.5383 25.7811 25.6147C25.6353 25.6911 25.479 25.764 25.3123 25.8334L25.0623 27.0834H23.3957ZM24.229 24.5834C24.6873 24.5834 25.0797 24.4202 25.4061 24.0938C25.7325 23.7674 25.8957 23.3751 25.8957 22.9167C25.8957 22.4584 25.7325 22.0661 25.4061 21.7397C25.0797 21.4133 24.6873 21.2501 24.229 21.2501C23.7707 21.2501 23.3783 21.4133 23.0519 21.7397C22.7255 22.0661 22.5623 22.4584 22.5623 22.9167C22.5623 23.3751 22.7255 23.7674 23.0519 24.0938C23.3783 24.4202 23.7707 24.5834 24.229 24.5834ZM18.3957 17.9167C18.854 17.9167 19.2464 17.7536 19.5728 17.4272C19.8991 17.1008 20.0623 16.7084 20.0623 16.2501C20.0623 15.7917 19.8991 15.3994 19.5728 15.073C19.2464 14.7466 18.854 14.5834 18.3957 14.5834C17.9373 14.5834 17.545 14.7466 17.2186 15.073C16.8922 15.3994 16.729 15.7917 16.729 16.2501C16.729 16.7084 16.8922 17.1008 17.2186 17.4272C17.545 17.7536 17.9373 17.9167 18.3957 17.9167Z" fill="#6B6D69"/>
</svg>
