<svg width="23" height="23" viewBox="0 0 23 23" fill="none" xmlns="http://www.w3.org/2000/svg">
<path d="M10.9884 3.10392C11.0294 3.02941 11.0897 2.96728 11.1629 2.92401C11.2362 2.88074 11.3196 2.85791 11.4047 2.85791C11.4897 2.85791 11.5732 2.88074 11.6465 2.92401C11.7197 2.96728 11.7799 3.02941 11.821 3.10392L14.6266 8.42996C14.6935 8.55328 14.7868 8.66027 14.9 8.74323C15.0131 8.82619 15.1433 8.88306 15.281 8.90978C15.4187 8.93649 15.5607 8.93237 15.6966 8.89772C15.8326 8.86307 15.9592 8.79875 16.0674 8.70937L20.1322 5.22711C20.2103 5.16364 20.3064 5.12657 20.4068 5.12124C20.5073 5.1159 20.6068 5.14257 20.6911 5.19741C20.7755 5.25224 20.8402 5.33242 20.8761 5.4264C20.9119 5.52038 20.917 5.6233 20.8906 5.72037L18.1972 15.4582C18.1422 15.6574 18.0238 15.8333 17.8598 15.9592C17.6959 16.0851 17.4953 16.1541 17.2886 16.1558H5.52172C5.31485 16.1543 5.1141 16.0854 4.94995 15.9595C4.7858 15.8336 4.66721 15.6576 4.61219 15.4582L1.9197 5.72132C1.89333 5.62425 1.89843 5.52133 1.93428 5.42735C1.97013 5.33337 2.03487 5.25319 2.11919 5.19836C2.20351 5.14352 2.30305 5.11685 2.40349 5.12219C2.50393 5.12752 2.60009 5.16459 2.67812 5.22806L6.74203 8.71033C6.85019 8.7997 6.97679 8.86402 7.11275 8.89867C7.24871 8.93332 7.39065 8.93744 7.52839 8.91073C7.66613 8.88401 7.79625 8.82714 7.9094 8.74418C8.02255 8.66122 8.11593 8.55423 8.18284 8.43091L10.9884 3.10392Z" stroke="#FF5900" stroke-width="1.9008" stroke-linecap="round" stroke-linejoin="round"/>
<path d="M4.75189 19.9583H18.0575" stroke="#FF5900" stroke-width="1.9008" stroke-linecap="round" stroke-linejoin="round"/>
</svg>
