<svg width="28" height="28" viewBox="0 0 28 28" fill="none" xmlns="http://www.w3.org/2000/svg">
<path d="M18.4161 8.79977L16.3703 14.9358C16.259 15.2699 16.0714 15.5734 15.8224 15.8224C15.5734 16.0714 15.2699 16.259 14.9358 16.3704L8.79974 18.4161L10.8455 12.28C10.9568 11.946 11.1444 11.6424 11.3934 11.3934C11.6424 11.1444 11.9459 10.9568 12.28 10.8455L18.4161 8.79977Z" stroke="#0D2805" stroke-opacity="0.5" stroke-width="2.268" stroke-linecap="round" stroke-linejoin="round"/>
<path d="M13.6077 24.9477C19.8706 24.9477 24.9477 19.8706 24.9477 13.6077C24.9477 7.34482 19.8706 2.26773 13.6077 2.26773C7.3448 2.26773 2.26771 7.34482 2.26771 13.6077C2.26771 19.8706 7.3448 24.9477 13.6077 24.9477Z" stroke="#0D2805" stroke-opacity="0.5" stroke-width="2.268" stroke-linecap="round" stroke-linejoin="round"/>
</svg>
