<svg width="40" height="40" viewBox="0 0 40 40" fill="none" xmlns="http://www.w3.org/2000/svg">
<path d="M0 10C0 4.47715 4.47715 0 10 0H30C35.5228 0 40 4.47715 40 10V30C40 35.5228 35.5228 40 30 40H10C4.47715 40 0 35.5228 0 30V10Z" fill="#F1F5F9"/>
<g clip-path="url(#clip0_303_1419)">
<path d="M30 20.061C30 14.5385 25.5225 10.061 20 10.061C14.4775 10.061 10 14.5385 10 20.061C10 25.0527 13.6567 29.1894 18.4375 29.9394V22.9519H15.8983V20.0602H18.4375V17.8585C18.4375 15.3527 19.9308 13.9677 22.215 13.9677C23.3083 13.9677 24.4533 14.1635 24.4533 14.1635V16.6244H23.1917C21.9492 16.6244 21.5617 17.3952 21.5617 18.186V20.061H24.335L23.8917 22.9527H21.5617V29.9402C26.3433 29.1894 30 25.0519 30 20.061Z" fill="#64748B"/>
</g>
<defs>
<clipPath id="clip0_303_1419">
<rect width="20" height="20" fill="white" transform="translate(10 10)"/>
</clipPath>
</defs>
</svg>
