<svg width="23" height="10" viewBox="0 0 23 10" fill="none" xmlns="http://www.w3.org/2000/svg">
<path d="M1.85156 9.11719C1.51172 9.11328 1.20117 9.02734 0.919922 8.85938C0.638672 8.69141 0.415039 8.4668 0.249023 8.18555C0.0830078 7.9043 0 7.59375 0 7.25391C0 6.91016 0.0830078 6.59668 0.249023 6.31348C0.415039 6.03027 0.638672 5.80371 0.919922 5.63379C1.20117 5.46387 1.51172 5.37891 1.85156 5.37891H2.83594V3.71484H1.85156C1.51172 3.71484 1.20117 3.63184 0.919922 3.46582C0.638672 3.2998 0.415039 3.0752 0.249023 2.79199C0.0830078 2.50879 0 2.19531 0 1.85156C0 1.51172 0.0830078 1.20215 0.249023 0.922852C0.415039 0.643555 0.638672 0.419922 0.919922 0.251953C1.20117 0.0839844 1.51172 0 1.85156 0C2.19531 0 2.50879 0.0839844 2.79199 0.251953C3.0752 0.419922 3.30176 0.643555 3.47168 0.922852C3.6416 1.20215 3.72656 1.51172 3.72656 1.85156V2.82422H5.39062V1.85156C5.39062 1.51172 5.47461 1.20215 5.64258 0.922852C5.81055 0.643555 6.03516 0.419922 6.31641 0.251953C6.59766 0.0839844 6.91016 0 7.25391 0C7.59766 0 7.91016 0.0839844 8.19141 0.251953C8.47266 0.419922 8.69727 0.643555 8.86523 0.922852C9.0332 1.20215 9.11719 1.51172 9.11719 1.85156C9.11719 2.19531 9.0332 2.50781 8.86523 2.78906C8.69727 3.07031 8.47266 3.29492 8.19141 3.46289C7.91016 3.63086 7.59766 3.71484 7.25391 3.71484H6.28125V5.37891H7.25391C7.59766 5.37891 7.91016 5.46387 8.19141 5.63379C8.47266 5.80371 8.69727 6.03027 8.86523 6.31348C9.0332 6.59668 9.11719 6.91016 9.11719 7.25391C9.11719 7.59375 9.0332 7.90527 8.86523 8.18848C8.69727 8.47168 8.47266 8.69727 8.19141 8.86523C7.91016 9.0332 7.59766 9.11719 7.25391 9.11719C6.91016 9.11719 6.59766 9.0332 6.31641 8.86523C6.03516 8.69727 5.81055 8.47168 5.64258 8.18848C5.47461 7.90527 5.39062 7.59375 5.39062 7.25391V6.28125H3.72656V7.25391C3.72656 7.59375 3.6416 7.9043 3.47168 8.18555C3.30176 8.4668 3.0752 8.69141 2.79199 8.85938C2.50879 9.02734 2.19531 9.11328 1.85156 9.11719ZM1.85156 8.22656C2.03516 8.22266 2.20117 8.17773 2.34961 8.0918C2.49805 8.00586 2.61621 7.88867 2.7041 7.74023C2.79199 7.5918 2.83594 7.42969 2.83594 7.25391V6.28125H1.85156C1.67578 6.28125 1.51562 6.3252 1.37109 6.41309C1.22656 6.50098 1.11035 6.61816 1.02246 6.76465C0.93457 6.91113 0.890625 7.07422 0.890625 7.25391C0.890625 7.42969 0.93457 7.5918 1.02246 7.74023C1.11035 7.88867 1.22656 8.00586 1.37109 8.0918C1.51562 8.17773 1.67578 8.22266 1.85156 8.22656ZM1.85156 2.82422H2.83594V1.85156C2.83594 1.67187 2.79102 1.50977 2.70117 1.36523C2.61133 1.2207 2.49316 1.10547 2.34668 1.01953C2.2002 0.933594 2.03516 0.890625 1.85156 0.890625C1.67578 0.890625 1.51562 0.933594 1.37109 1.01953C1.22656 1.10547 1.11035 1.2207 1.02246 1.36523C0.93457 1.50977 0.890625 1.67187 0.890625 1.85156C0.890625 2.03125 0.93457 2.19531 1.02246 2.34375C1.11035 2.49219 1.22656 2.60937 1.37109 2.69531C1.51562 2.78125 1.67578 2.82422 1.85156 2.82422ZM6.28125 2.82422H7.25391C7.43359 2.82422 7.59668 2.78125 7.74316 2.69531C7.88965 2.60937 8.00684 2.49219 8.09473 2.34375C8.18262 2.19531 8.22656 2.03125 8.22656 1.85156C8.22656 1.67187 8.18262 1.50977 8.09473 1.36523C8.00684 1.2207 7.88965 1.10547 7.74316 1.01953C7.59668 0.933594 7.43359 0.890625 7.25391 0.890625C7.07422 0.890625 6.91113 0.933594 6.76465 1.01953C6.61816 1.10547 6.50098 1.2207 6.41309 1.36523C6.3252 1.50977 6.28125 1.67187 6.28125 1.85156V2.82422ZM7.25391 8.22656C7.43359 8.22266 7.59668 8.17773 7.74316 8.0918C7.88965 8.00586 8.00684 7.88867 8.09473 7.74023C8.18262 7.5918 8.22656 7.42969 8.22656 7.25391C8.22656 7.07422 8.18262 6.91113 8.09473 6.76465C8.00684 6.61816 7.88965 6.50098 7.74316 6.41309C7.59668 6.3252 7.43359 6.28125 7.25391 6.28125H6.28125V7.25391C6.28125 7.42969 6.3252 7.5918 6.41309 7.74023C6.50098 7.88867 6.61816 8.00586 6.76465 8.0918C6.91113 8.17773 7.07422 8.22266 7.25391 8.22656ZM3.72656 5.37891H5.39062V3.71484H3.72656V5.37891ZM16.1523 6.59589V5.25984C16.3445 4.96953 16.5352 4.69533 16.7244 4.43725C16.9135 4.17916 17.1115 3.925 17.3181 3.67477C17.5248 3.42453 17.7456 3.16711 17.9805 2.9025L20.4308 0.1875H22.1324L18.4195 4.27324L18.3314 4.25156L16.1523 6.59589ZM15.2039 8.91797V0.1875H16.5429V2.9754L16.52 4.97016L16.5429 5.62476V8.91797H15.2039ZM20.5836 8.91797L17.6153 4.64425L18.4522 3.62098L22.1667 8.91797H20.5836Z" fill="#FF5900"/>
</svg>
