<svg width="20" height="20" viewBox="0 0 20 20" fill="none" xmlns="http://www.w3.org/2000/svg">
<g clip-path="url(#clip0_1036_1981)">
<path d="M15.6741 5.77522V3.30022C15.6741 3.08142 15.5872 2.87157 15.4325 2.71686C15.2778 2.56214 15.0679 2.47522 14.8491 2.47522H4.12412C3.68651 2.47522 3.26683 2.64906 2.95739 2.95849C2.64796 3.26793 2.47412 3.68761 2.47412 4.12522C2.47412 4.56283 2.64796 4.98251 2.95739 5.29195C3.26683 5.60138 3.68651 5.77522 4.12412 5.77522H16.4991C16.7179 5.77522 16.9278 5.86214 17.0825 6.01686C17.2372 6.17157 17.3241 6.38142 17.3241 6.60022V9.90022M17.3241 9.90022H14.8491C14.4115 9.90022 13.9918 10.0741 13.6824 10.3835C13.373 10.6929 13.1991 11.1126 13.1991 11.5502C13.1991 11.9878 13.373 12.4075 13.6824 12.7169C13.9918 13.0264 14.4115 13.2002 14.8491 13.2002H17.3241C17.5429 13.2002 17.7528 13.1133 17.9075 12.9586C18.0622 12.8039 18.1491 12.594 18.1491 12.3752V10.7252C18.1491 10.5064 18.0622 10.2966 17.9075 10.1419C17.7528 9.98714 17.5429 9.90022 17.3241 9.90022Z" stroke="#0D2805" stroke-opacity="0.5" stroke-width="1.65" stroke-linecap="round" stroke-linejoin="round"/>
<path d="M2.47412 4.12518V15.6752C2.47412 16.1128 2.64796 16.5325 2.95739 16.8419C3.26683 17.1513 3.68651 17.3252 4.12412 17.3252H16.4991C16.7179 17.3252 16.9278 17.2383 17.0825 17.0835C17.2372 16.9288 17.3241 16.719 17.3241 16.5002V13.2002" stroke="#0D2805" stroke-opacity="0.5" stroke-width="1.65" stroke-linecap="round" stroke-linejoin="round"/>
</g>
<defs>
<clipPath id="clip0_1036_1981">
<rect width="19.8" height="19.8" fill="white"/>
</clipPath>
</defs>
</svg>
