<svg width="28" height="28" viewBox="0 0 28 28" fill="none" xmlns="http://www.w3.org/2000/svg">
<path d="M17.01 23.814V14.742C17.01 14.4413 16.8905 14.1528 16.6778 13.9402C16.4652 13.7275 16.1767 13.608 15.876 13.608H11.34C11.0392 13.608 10.7508 13.7275 10.5381 13.9402C10.3255 14.1528 10.206 14.4413 10.206 14.742V23.814" stroke="#0D2805" stroke-opacity="0.5" stroke-width="2.268" stroke-linecap="round" stroke-linejoin="round"/>
<path d="M3.40194 11.34C3.40186 11.0101 3.47376 10.6841 3.61262 10.3848C3.75148 10.0856 3.95396 9.82021 4.20594 9.60725L12.1439 2.80438C12.5533 2.45841 13.072 2.26859 13.6079 2.26859C14.1439 2.26859 14.6626 2.45841 15.0719 2.80438L23.0099 9.60725C23.2619 9.82021 23.4644 10.0856 23.6033 10.3848C23.7421 10.6841 23.814 11.0101 23.8139 11.34V21.546C23.8139 22.1475 23.575 22.7244 23.1497 23.1497C22.7243 23.575 22.1474 23.814 21.5459 23.814H5.66994C5.06842 23.814 4.49155 23.575 4.06622 23.1497C3.64088 22.7244 3.40194 22.1475 3.40194 21.546V11.34Z" stroke="#0D2805" stroke-opacity="0.5" stroke-width="2.268" stroke-linecap="round" stroke-linejoin="round"/>
</svg>
