<svg width="40" height="40" viewBox="0 0 40 40" fill="none" xmlns="http://www.w3.org/2000/svg">
<path d="M0 10C0 4.47715 4.47715 0 10 0H30C35.5228 0 40 4.47715 40 10V30C40 35.5228 35.5228 40 30 40H10C4.47715 40 0 35.5228 0 30V10Z" fill="#F1F5F9"/>
<g clip-path="url(#clip0_303_1431)">
<path d="M27.0392 27.0433H24.0775V22.4025C24.0775 21.2958 24.055 19.8717 22.5342 19.8717C20.99 19.8717 20.7542 21.0758 20.7542 22.3208V27.0433H17.7925V17.5H20.6375V18.8008H20.6758C21.0733 18.0508 22.04 17.2592 23.4842 17.2592C26.485 17.2592 27.04 19.2342 27.04 21.805L27.0392 27.0433ZM14.4475 16.1942C14.2216 16.1943 13.9978 16.1498 13.7891 16.0634C13.5804 15.9769 13.3907 15.8501 13.231 15.6903C13.0713 15.5305 12.9448 15.3407 12.8585 15.1319C12.7722 14.9231 12.728 14.6993 12.7283 14.4733C12.7285 14.1331 12.8295 13.8007 13.0187 13.5179C13.2078 13.2351 13.4765 13.0148 13.7909 12.8848C14.1052 12.7547 14.4511 12.7209 14.7847 12.7874C15.1183 12.8539 15.4247 13.0179 15.6651 13.2585C15.9056 13.4992 16.0692 13.8057 16.1354 14.1394C16.2017 14.4731 16.1674 14.8189 16.0371 15.1332C15.9068 15.4474 15.6862 15.7159 15.4032 15.9048C15.1203 16.0936 14.7877 16.1943 14.4475 16.1942ZM15.9325 27.0433H12.9625V17.5H15.9325V27.0433ZM28.5208 10H11.4758C10.66 10 10 10.645 10 11.4408V28.5592C10 29.3558 10.66 30 11.4758 30H28.5183C29.3333 30 30 29.3558 30 28.5592V11.4408C30 10.645 29.3333 10 28.5183 10H28.5208Z" fill="#64748B"/>
</g>
<defs>
<clipPath id="clip0_303_1431">
<rect width="20" height="20" fill="white" transform="translate(10 10)"/>
</clipPath>
</defs>
</svg>
