<svg width="40" height="40" viewBox="0 0 40 40" fill="none" xmlns="http://www.w3.org/2000/svg">
<path d="M0 10C0 4.47715 4.47715 0 10 0H30C35.5228 0 40 4.47715 40 10V30C40 35.5228 35.5228 40 30 40H10C4.47715 40 0 35.5228 0 30V10Z" fill="#F1F5F9"/>
<g clip-path="url(#clip0_303_1425)">
<path d="M20 10C17.2833 10 16.9442 10.0125 15.8775 10.06C14.8125 10.11 14.0875 10.2775 13.45 10.525C12.7925 10.78 12.2342 11.1225 11.6783 11.6783C11.1225 12.2342 10.7792 12.7917 10.525 13.45C10.2775 14.0875 10.1092 14.8125 10.06 15.8775C10.01 16.9442 10 17.2833 10 20C10 22.7167 10.0125 23.0558 10.06 24.1225C10.11 25.1867 10.2775 25.9125 10.525 26.55C10.78 27.2067 11.1225 27.7658 11.6783 28.3217C12.2342 28.8767 12.7917 29.2208 13.45 29.475C14.0883 29.7217 14.8133 29.8908 15.8775 29.94C16.9442 29.99 17.2833 30 20 30C22.7167 30 23.0558 29.9875 24.1225 29.94C25.1867 29.89 25.9125 29.7217 26.55 29.475C27.2067 29.22 27.7658 28.8767 28.3217 28.3217C28.8767 27.7658 29.2208 27.2092 29.475 26.55C29.7217 25.9125 29.8908 25.1867 29.94 24.1225C29.99 23.0558 30 22.7167 30 20C30 17.2833 29.9875 16.9442 29.94 15.8775C29.89 14.8133 29.7217 14.0867 29.475 13.45C29.22 12.7925 28.8767 12.2342 28.3217 11.6783C27.7658 11.1225 27.2092 10.7792 26.55 10.525C25.9125 10.2775 25.1867 10.1092 24.1225 10.06C23.0558 10.01 22.7167 10 20 10ZM20 11.8C22.6692 11.8 22.9875 11.8133 24.0417 11.8592C25.0167 11.905 25.5458 12.0667 25.8975 12.205C26.3658 12.3858 26.6975 12.6025 27.0492 12.9517C27.3983 13.3017 27.615 13.6342 27.7958 14.1025C27.9325 14.4542 28.0958 14.9833 28.14 15.9583C28.1875 17.0133 28.1983 17.33 28.1983 20C28.1983 22.67 28.1858 22.9875 28.1367 24.0417C28.0858 25.0167 27.9233 25.5458 27.7858 25.8975C27.5992 26.3658 27.3867 26.6975 27.0367 27.0492C26.6875 27.3983 26.35 27.615 25.8867 27.7958C25.5367 27.9325 24.9992 28.0958 24.0242 28.14C22.9625 28.1875 22.65 28.1983 19.975 28.1983C17.2992 28.1983 16.9867 28.1858 15.9258 28.1367C14.95 28.0858 14.4125 27.9233 14.0625 27.7858C13.5883 27.5992 13.2625 27.3867 12.9133 27.0367C12.5625 26.6875 12.3383 26.35 12.1633 25.8867C12.0258 25.5367 11.8642 24.9992 11.8133 24.0242C11.7758 22.9742 11.7625 22.65 11.7625 19.9875C11.7625 17.3242 11.7758 16.9992 11.8133 15.9367C11.8642 14.9617 12.0258 14.425 12.1633 14.075C12.3383 13.6 12.5625 13.275 12.9133 12.9242C13.2625 12.575 13.5883 12.35 14.0625 12.1758C14.4125 12.0375 14.9383 11.875 15.9133 11.825C16.9758 11.7875 17.2883 11.775 19.9625 11.775L20 11.8ZM20 14.865C17.1625 14.865 14.865 17.165 14.865 20C14.865 22.8375 17.165 25.135 20 25.135C22.8375 25.135 25.135 22.835 25.135 20C25.135 17.1625 22.835 14.865 20 14.865ZM20 23.3333C18.1583 23.3333 16.6667 21.8417 16.6667 20C16.6667 18.1583 18.1583 16.6667 20 16.6667C21.8417 16.6667 23.3333 18.1583 23.3333 20C23.3333 21.8417 21.8417 23.3333 20 23.3333ZM26.5383 14.6625C26.5383 15.325 26 15.8625 25.3383 15.8625C24.6758 15.8625 24.1383 15.3242 24.1383 14.6625C24.1383 14.0008 24.6767 13.4633 25.3383 13.4633C25.9992 13.4625 26.5383 14.0008 26.5383 14.6625Z" fill="#64748B"/>
</g>
<defs>
<clipPath id="clip0_303_1425">
<rect width="20" height="20" fill="white" transform="translate(10 10)"/>
</clipPath>
</defs>
</svg>
