<svg width="21" height="21" viewBox="0 0 21 21" fill="none" xmlns="http://www.w3.org/2000/svg">
<path d="M5.88086 8.40002V18.48" stroke="#A6A09B" stroke-width="1.68" stroke-linecap="round" stroke-linejoin="round"/>
<path d="M12.5987 4.93852L11.7587 8.39932H16.6559C16.9167 8.39932 17.174 8.46004 17.4072 8.57668C17.6405 8.69332 17.8434 8.86267 17.9999 9.07132C18.1564 9.27997 18.2622 9.52219 18.3088 9.77879C18.3555 10.0354 18.3417 10.2993 18.2687 10.5497L16.3115 17.2697C16.2097 17.6187 15.9975 17.9252 15.7067 18.1433C15.4159 18.3614 15.0622 18.4793 14.6987 18.4793H3.35871C2.91315 18.4793 2.48583 18.3023 2.17077 17.9873C1.85571 17.6722 1.67871 17.2449 1.67871 16.7993V10.0793C1.67871 9.63376 1.85571 9.20644 2.17077 8.89138C2.48583 8.57632 2.91315 8.39932 3.35871 8.39932H5.67711C5.98966 8.39916 6.29597 8.3118 6.56159 8.14709C6.82722 7.98237 7.04163 7.74682 7.18071 7.46692L10.0787 1.67932C10.4748 1.68423 10.8647 1.77858 11.2193 1.95534C11.5738 2.1321 11.8838 2.38669 12.1261 2.70009C12.3684 3.01349 12.5368 3.3776 12.6186 3.76521C12.7005 4.15282 12.6937 4.55391 12.5987 4.93852Z" stroke="#A6A09B" stroke-width="1.68" stroke-linecap="round" stroke-linejoin="round"/>
</svg>
