<svg width="23" height="23" viewBox="0 0 23 23" fill="none" xmlns="http://www.w3.org/2000/svg">
<path d="M19.008 9.50396C19.008 14.2493 13.7438 19.1914 11.976 20.7177C11.8113 20.8416 11.6109 20.9085 11.4048 20.9085C11.1988 20.9085 10.9983 20.8416 10.8336 20.7177C9.0659 19.1914 3.80164 14.2493 3.80164 9.50396C3.80164 7.48746 4.60268 5.55356 6.02856 4.12768C7.45444 2.70181 9.38834 1.90076 11.4048 1.90076C13.4213 1.90076 15.3552 2.70181 16.7811 4.12768C18.207 5.55356 19.008 7.48746 19.008 9.50396Z" stroke="#0D2805" stroke-opacity="0.6" stroke-width="1.9008" stroke-linecap="round" stroke-linejoin="round"/>
<path d="M11.4048 12.3552C12.9795 12.3552 14.256 11.0787 14.256 9.50403C14.256 7.92936 12.9795 6.65283 11.4048 6.65283C9.83015 6.65283 8.55362 7.92936 8.55362 9.50403C8.55362 11.0787 9.83015 12.3552 11.4048 12.3552Z" stroke="#0D2805" stroke-opacity="0.6" stroke-width="1.9008" stroke-linecap="round" stroke-linejoin="round"/>
</svg>
