<svg width="28" height="28" viewBox="0 0 28 28" fill="none" xmlns="http://www.w3.org/2000/svg">
<g opacity="0.312773">
<path d="M23.3333 11.6667C23.3333 17.4918 16.8712 23.5585 14.7012 25.4322C14.499 25.5842 14.2529 25.6664 14 25.6664C13.7471 25.6664 13.501 25.5842 13.2988 25.4322C11.1288 23.5585 4.66666 17.4918 4.66666 11.6667C4.66666 9.19132 5.64999 6.81735 7.40033 5.06701C9.15067 3.31667 11.5246 2.33334 14 2.33334C16.4753 2.33334 18.8493 3.31667 20.5997 5.06701C22.35 6.81735 23.3333 9.19132 23.3333 11.6667Z" stroke="#FF5900" stroke-width="2.33333" stroke-linecap="round" stroke-linejoin="round"/>
<path d="M14 15.1667C15.933 15.1667 17.5 13.5997 17.5 11.6667C17.5 9.73366 15.933 8.16666 14 8.16666C12.067 8.16666 10.5 9.73366 10.5 11.6667C10.5 13.5997 12.067 15.1667 14 15.1667Z" stroke="#FF5900" stroke-width="2.33333" stroke-linecap="round" stroke-linejoin="round"/>
</g>
</svg>
