<svg width="28" height="28" viewBox="0 0 28 28" fill="none" xmlns="http://www.w3.org/2000/svg">
<path d="M3.40194 13.608C3.40194 15.6265 4.00051 17.5998 5.12196 19.2781C6.24341 20.9565 7.83737 22.2646 9.70227 23.0371C11.5672 23.8096 13.6193 24.0117 15.599 23.6179C17.5788 23.2241 19.3973 22.2521 20.8247 20.8247C22.252 19.3974 23.224 17.5788 23.6178 15.5991C24.0116 13.6193 23.8095 11.5672 23.0371 9.70232C22.2646 7.83742 20.9565 6.24346 19.2781 5.12201C17.5997 4.00056 15.6265 3.40199 13.6079 3.40199C10.7547 3.41272 8.01615 4.52603 5.96478 6.50915L3.40194 9.07199" stroke="#00B70D" stroke-width="2.835" stroke-linecap="round" stroke-linejoin="round"/>
<path d="M3.40194 3.40199V9.07199H9.07193" stroke="#00B70D" stroke-width="2.835" stroke-linecap="round" stroke-linejoin="round"/>
<path d="M13.6082 7.93868V13.6087L18.1442 15.8767" stroke="#00B70D" stroke-width="2.835" stroke-linecap="round" stroke-linejoin="round"/>
</svg>
