<svg width="30" height="30" viewBox="0 0 30 30" fill="none" xmlns="http://www.w3.org/2000/svg">
<path d="M3.74121 14.9618C3.74121 17.1811 4.39934 19.3507 5.63235 21.1959C6.86536 23.0413 8.61787 24.4795 10.6683 25.3289C12.7188 26.1782 14.975 26.4004 17.1516 25.9674C19.3284 25.5345 21.3278 24.4658 22.8972 22.8964C24.4665 21.3271 25.5352 19.3276 25.9681 17.1509C26.4011 14.9742 26.1789 12.718 25.3296 10.6676C24.4803 8.61714 23.0421 6.86461 21.1967 5.6316C19.3514 4.39859 17.1819 3.74048 14.9625 3.74048C11.8254 3.75228 8.81445 4.97634 6.559 7.15673L3.74121 9.97452" stroke="#0D2805" stroke-opacity="0.5" stroke-width="2.49362" stroke-linecap="round" stroke-linejoin="round"/>
<path d="M3.74121 3.74048V9.97452H9.97525" stroke="#0D2805" stroke-opacity="0.5" stroke-width="2.49362" stroke-linecap="round" stroke-linejoin="round"/>
<path d="M14.9648 8.72864V14.9627L19.9521 17.4563" stroke="#0D2805" stroke-opacity="0.5" stroke-width="2.49362" stroke-linecap="round" stroke-linejoin="round"/>
</svg>
