<svg width="896" height="15" viewBox="0 0 896 15" fill="none" xmlns="http://www.w3.org/2000/svg">
<g opacity="0.3">
<path d="M402 6C402 2.68629 404.686 0 408 0C411.314 0 414 2.68629 414 6C414 9.31371 411.314 12 408 12C404.686 12 402 9.31371 402 6Z" fill="#00B70D"/>
<path d="M422 6C422 2.68629 424.686 0 428 0C431.314 0 434 2.68629 434 6C434 9.31371 431.314 12 428 12C424.686 12 422 9.31371 422 6Z" fill="#00B70D"/>
<path d="M442 6C442 2.68629 444.686 0 448 0C451.314 0 454 2.68629 454 6C454 9.31371 451.314 12 448 12C444.686 12 442 9.31371 442 6Z" fill="#00B70D"/>
<path d="M462 6C462 2.68629 464.686 0 468 0C471.314 0 474 2.68629 474 6C474 9.31371 471.314 12 468 12C464.686 12 462 9.31371 462 6Z" fill="#00B70D"/>
<path d="M482 6C482 2.68629 484.686 0 488 0C491.314 0 494 2.68629 494 6C494 9.31371 491.314 12 488 12C484.686 12 482 9.31371 482 6Z" fill="#00B70D"/>
</g>
</svg>
