<svg width="22" height="22" viewBox="0 0 22 22" fill="none" xmlns="http://www.w3.org/2000/svg">
<path d="M8.16326 2.72284H3.62576C3.12456 2.72284 2.71826 3.12914 2.71826 3.63034V8.16784C2.71826 8.66904 3.12456 9.07534 3.62576 9.07534H8.16326C8.66446 9.07534 9.07076 8.66904 9.07076 8.16784V3.63034C9.07076 3.12914 8.66446 2.72284 8.16326 2.72284Z" stroke="#869381" stroke-width="2.26875" stroke-linecap="round" stroke-linejoin="round"/>
<path d="M18.1491 2.72284H13.6116C13.1104 2.72284 12.7041 3.12914 12.7041 3.63034V8.16784C12.7041 8.66904 13.1104 9.07534 13.6116 9.07534H18.1491C18.6503 9.07534 19.0566 8.66904 19.0566 8.16784V3.63034C19.0566 3.12914 18.6503 2.72284 18.1491 2.72284Z" stroke="#869381" stroke-width="2.26875" stroke-linecap="round" stroke-linejoin="round"/>
<path d="M18.1491 12.705H13.6116C13.1104 12.705 12.7041 13.1113 12.7041 13.6125V18.15C12.7041 18.6512 13.1104 19.0575 13.6116 19.0575H18.1491C18.6503 19.0575 19.0566 18.6512 19.0566 18.15V13.6125C19.0566 13.1113 18.6503 12.705 18.1491 12.705Z" stroke="#869381" stroke-width="2.26875" stroke-linecap="round" stroke-linejoin="round"/>
<path d="M8.16326 12.705H3.62576C3.12456 12.705 2.71826 13.1113 2.71826 13.6125V18.15C2.71826 18.6512 3.12456 19.0575 3.62576 19.0575H8.16326C8.66446 19.0575 9.07076 18.6512 9.07076 18.15V13.6125C9.07076 13.1113 8.66446 12.705 8.16326 12.705Z" stroke="#869381" stroke-width="2.26875" stroke-linecap="round" stroke-linejoin="round"/>
</svg>
