<svg width="28" height="28" viewBox="0 0 28 28" fill="none" xmlns="http://www.w3.org/2000/svg">
<g opacity="0.7">
<path d="M13.8571 2.26755H13.3582C12.7567 2.26755 12.1798 2.5065 11.7545 2.93183C11.3291 3.35716 11.0902 3.93404 11.0902 4.53555V4.73967C11.0898 5.13739 10.9848 5.52801 10.7857 5.87235C10.5867 6.21668 10.3006 6.50263 9.95618 6.70149L9.46856 6.98499C9.12378 7.18405 8.73267 7.28884 8.33456 7.28884C7.93644 7.28884 7.54534 7.18405 7.20056 6.98499L7.03046 6.89427C6.51002 6.59405 5.89174 6.51261 5.31132 6.66782C4.73089 6.82302 4.23577 7.20219 3.93464 7.72209L3.68516 8.15301C3.38495 8.67344 3.3035 9.29173 3.45871 9.87215C3.61391 10.4526 3.99308 10.9477 4.51298 11.2488L4.68308 11.3622C5.02586 11.5601 5.31088 11.8443 5.50982 12.1865C5.70876 12.5286 5.81469 12.9169 5.81708 13.3127V13.891C5.81866 14.2907 5.71462 14.6837 5.51548 15.0302C5.31635 15.3767 5.02918 15.6644 4.68308 15.8642L4.51298 15.9663C3.99308 16.2674 3.61391 16.7625 3.45871 17.3429C3.3035 17.9234 3.38495 18.5417 3.68516 19.0621L3.93464 19.493C4.23577 20.0129 4.73089 20.3921 5.31132 20.5473C5.89174 20.7025 6.51002 20.621 7.03046 20.3208L7.20056 20.2301C7.54534 20.031 7.93644 19.9262 8.33456 19.9262C8.73267 19.9262 9.12378 20.031 9.46856 20.2301L9.95618 20.5136C10.3006 20.7125 10.5867 20.9984 10.7857 21.3427C10.9848 21.6871 11.0898 22.0777 11.0902 22.4754V22.6795C11.0902 23.2811 11.3291 23.8579 11.7545 24.2833C12.1798 24.7086 12.7567 24.9475 13.3582 24.9475H13.8571C14.4586 24.9475 15.0355 24.7086 15.4609 24.2833C15.8862 23.8579 16.1251 23.2811 16.1251 22.6795V22.4754C16.1255 22.0777 16.2305 21.6871 16.4296 21.3427C16.6286 20.9984 16.9147 20.7125 17.2591 20.5136L17.7468 20.2301C18.0915 20.031 18.4826 19.9262 18.8808 19.9262C19.2789 19.9262 19.67 20.031 20.0148 20.2301L20.1849 20.3208C20.7053 20.621 21.3236 20.7025 21.904 20.5473C22.4844 20.3921 22.9795 20.0129 23.2807 19.493L23.5302 19.0507C23.8304 18.5303 23.9118 17.912 23.7566 17.3316C23.6014 16.7512 23.2222 16.2561 22.7023 15.9549L22.5322 15.8642C22.1861 15.6644 21.899 15.3767 21.6998 15.0302C21.5007 14.6837 21.3967 14.2907 21.3982 13.891V13.324C21.3967 12.9244 21.5007 12.5314 21.6998 12.1849C21.899 11.8384 22.1861 11.5507 22.5322 11.3509L22.7023 11.2488C23.2222 10.9477 23.6014 10.4526 23.7566 9.87215C23.9118 9.29173 23.8304 8.67344 23.5302 8.15301L23.2807 7.72209C22.9795 7.20219 22.4844 6.82302 21.904 6.66782C21.3236 6.51261 20.7053 6.59405 20.1849 6.89427L20.0148 6.98499C19.67 7.18405 19.2789 7.28884 18.8808 7.28884C18.4826 7.28884 18.0915 7.18405 17.7468 6.98499L17.2591 6.70149C16.9147 6.50263 16.6286 6.21668 16.4296 5.87235C16.2305 5.52801 16.1255 5.13739 16.1251 4.73967V4.53555C16.1251 3.93404 15.8862 3.35716 15.4609 2.93183C15.0355 2.5065 14.4586 2.26755 13.8571 2.26755Z" stroke="#0D2805" stroke-opacity="0.7" stroke-width="2.268" stroke-linecap="round" stroke-linejoin="round"/>
<path d="M13.608 17.0094C15.4869 17.0094 17.01 15.4863 17.01 13.6074C17.01 11.7285 15.4869 10.2054 13.608 10.2054C11.7291 10.2054 10.206 11.7285 10.206 13.6074C10.206 15.4863 11.7291 17.0094 13.608 17.0094Z" stroke="#0D2805" stroke-opacity="0.7" stroke-width="2.268" stroke-linecap="round" stroke-linejoin="round"/>
</g>
</svg>
