<svg width="28" height="28" viewBox="0 0 28 28" fill="none" xmlns="http://www.w3.org/2000/svg">
<path d="M13.8503 2.26648H13.3516C12.7504 2.26648 12.1738 2.50532 11.7487 2.93044C11.3235 3.35557 11.0847 3.93218 11.0847 4.5334V4.73743C11.0843 5.13496 10.9794 5.52539 10.7804 5.86957C10.5814 6.21375 10.2955 6.49955 9.95123 6.69832L9.46384 6.98168C9.11922 7.18065 8.7283 7.28539 8.33038 7.28539C7.93244 7.28539 7.54153 7.18065 7.19691 6.98168L7.02689 6.89101C6.5067 6.59094 5.88871 6.50953 5.30856 6.66466C4.72841 6.81979 4.23353 7.19878 3.93254 7.71843L3.68318 8.14915C3.3831 8.66933 3.3017 9.28733 3.45684 9.86748C3.61196 10.4477 3.99095 10.9425 4.51061 11.2435L4.68063 11.3568C5.02324 11.5546 5.30813 11.8387 5.50697 12.1806C5.70582 12.5227 5.8117 12.9108 5.81409 13.3064V13.8844C5.81567 14.2839 5.71168 14.6767 5.51263 15.023C5.31359 15.3693 5.02656 15.657 4.68063 15.8567L4.51061 15.9587C3.99095 16.2597 3.61196 16.7546 3.45684 17.3347C3.3017 17.9149 3.3831 18.5328 3.68318 19.0531L3.93254 19.4838C4.23353 20.0034 4.72841 20.3824 5.30856 20.5376C5.88871 20.6927 6.5067 20.6112 7.02689 20.3112L7.19691 20.2205C7.54153 20.0215 7.93244 19.9168 8.33038 19.9168C8.7283 19.9168 9.11922 20.0215 9.46384 20.2205L9.95123 20.5039C10.2955 20.7027 10.5814 20.9885 10.7804 21.3326C10.9794 21.6768 11.0843 22.0673 11.0847 22.4648V22.6688C11.0847 23.27 11.3235 23.8466 11.7487 24.2718C12.1738 24.6969 12.7504 24.9357 13.3516 24.9357H13.8503C14.4515 24.9357 15.0281 24.6969 15.4533 24.2718C15.8784 23.8466 16.1172 23.27 16.1172 22.6688V22.4648C16.1176 22.0673 16.2226 21.6768 16.4216 21.3326C16.6205 20.9885 16.9064 20.7027 17.2507 20.5039L17.7382 20.2205C18.0827 20.0215 18.4736 19.9168 18.8716 19.9168C19.2695 19.9168 19.6604 20.0215 20.0051 20.2205L20.1751 20.3112C20.6953 20.6112 21.3133 20.6927 21.8934 20.5376C22.4735 20.3824 22.9684 20.0034 23.2694 19.4838L23.5188 19.0417C23.8189 18.5215 23.9002 17.9035 23.7451 17.3234C23.59 16.7433 23.211 16.2484 22.6913 15.9474L22.5213 15.8567C22.1754 15.657 21.8884 15.3693 21.6893 15.023C21.4903 14.6767 21.3863 14.2839 21.3878 13.8844V13.3177C21.3863 12.9183 21.4903 12.5255 21.6893 12.1791C21.8884 11.8328 22.1754 11.5452 22.5213 11.3455L22.6913 11.2435C23.211 10.9425 23.59 10.4477 23.7451 9.86748C23.9002 9.28733 23.8189 8.66933 23.5188 8.14915L23.2694 7.71843C22.9684 7.19878 22.4735 6.81979 21.8934 6.66466C21.3133 6.50953 20.6953 6.59094 20.1751 6.89101L20.0051 6.98168C19.6604 7.18065 19.2695 7.28539 18.8716 7.28539C18.4736 7.28539 18.0827 7.18065 17.7382 6.98168L17.2507 6.69832C16.9064 6.49955 16.6205 6.21375 16.4216 5.86957C16.2226 5.52539 16.1176 5.13496 16.1172 4.73743V4.5334C16.1172 3.93218 15.8784 3.35557 15.4533 2.93044C15.0281 2.50532 14.4515 2.26648 13.8503 2.26648Z" stroke="#0D2805" stroke-opacity="0.5" stroke-width="2.26692" stroke-linecap="round" stroke-linejoin="round"/>
<path d="M13.6016 17.0013C15.4796 17.0013 17.0019 15.479 17.0019 13.6009C17.0019 11.7229 15.4796 10.2006 13.6016 10.2006C11.7235 10.2006 10.2012 11.7229 10.2012 13.6009C10.2012 15.479 11.7235 17.0013 13.6016 17.0013Z" stroke="#0D2805" stroke-opacity="0.5" stroke-width="2.26692" stroke-linecap="round" stroke-linejoin="round"/>
</svg>
