<svg width="40" height="40" viewBox="0 0 40 40" fill="none" xmlns="http://www.w3.org/2000/svg">
<path d="M0 10C0 4.47715 4.47715 0 10 0H30C35.5228 0 40 4.47715 40 10V30C40 35.5228 35.5228 40 30 40H10C4.47715 40 0 35.5228 0 30V10Z" fill="#F1F5F9"/>
<path d="M29.1668 12.5001C28.3688 13.063 27.4853 13.4935 26.5502 13.7751C26.0483 13.198 25.3813 12.789 24.6394 12.6034C23.8974 12.4177 23.1164 12.4644 22.4019 12.7371C21.6874 13.0098 21.0739 13.4954 20.6443 14.1282C20.2148 14.7609 19.9899 15.5104 20.0002 16.2751V17.1084C18.5357 17.1464 17.0846 16.8216 15.776 16.163C14.4674 15.5043 13.3421 14.5323 12.5002 13.3334C12.5002 13.3334 9.16683 20.8334 16.6668 24.1667C14.9506 25.3317 12.9061 25.9159 10.8335 25.8334C18.3335 30.0001 27.5002 25.8334 27.5002 16.2501C27.4994 16.018 27.4771 15.7864 27.4335 15.5584C28.284 14.7197 28.8842 13.6607 29.1668 12.5001Z" fill="#64748B"/>
</svg>
