<svg width="134" height="24" viewBox="0 0 134 24" fill="none" xmlns="http://www.w3.org/2000/svg">
<path d="M11.0627 2.2032C11.1048 2.11821 11.1698 2.04666 11.2504 1.99664C11.3309 1.94661 11.4239 1.9201 11.5187 1.9201C11.6136 1.9201 11.7065 1.94661 11.7871 1.99664C11.8677 2.04666 11.9326 2.11821 11.9747 2.2032L14.1923 6.69504C14.3384 6.99069 14.5541 7.24647 14.8208 7.44044C15.0875 7.6344 15.3972 7.76075 15.7235 7.80864L20.6829 8.5344C20.7769 8.54802 20.8651 8.58766 20.9378 8.64883C21.0104 8.71001 21.0644 8.79029 21.0938 8.88058C21.1231 8.97088 21.1267 9.06759 21.1039 9.15978C21.0812 9.25197 21.0331 9.33596 20.9651 9.40224L17.3786 12.8947C17.142 13.1252 16.9651 13.4097 16.8629 13.7238C16.7607 14.0379 16.7364 14.3721 16.792 14.6976L17.6387 19.632C17.6553 19.7259 17.6452 19.8226 17.6094 19.9111C17.5737 19.9995 17.5139 20.0761 17.4367 20.1322C17.3595 20.1882 17.2681 20.2214 17.173 20.2281C17.0778 20.2347 16.9827 20.2144 16.8986 20.1696L12.4653 17.8387C12.1732 17.6853 11.8482 17.6052 11.5182 17.6052C11.1883 17.6052 10.8633 17.6853 10.5712 17.8387L6.13888 20.1696C6.05472 20.2142 5.95974 20.2342 5.86475 20.2274C5.76976 20.2207 5.67858 20.1874 5.60156 20.1314C5.52455 20.0754 5.4648 19.9989 5.42911 19.9106C5.39342 19.8223 5.38322 19.7258 5.39968 19.632L6.24544 14.6986C6.30131 14.3729 6.2771 14.0385 6.17492 13.7242C6.07273 13.4099 5.89562 13.1253 5.65888 12.8947L2.07232 9.4032C2.00377 9.33699 1.95519 9.25286 1.93212 9.16039C1.90905 9.06792 1.91242 8.97084 1.94184 8.88019C1.97125 8.78954 2.02554 8.70897 2.09851 8.64767C2.17147 8.58636 2.2602 8.54678 2.35456 8.53344L7.31296 7.80864C7.63961 7.76112 7.94981 7.63494 8.21688 7.44095C8.48395 7.24696 8.69988 6.99098 8.84608 6.69504L11.0627 2.2032Z" fill="#FE9A00" stroke="#FE9A00" stroke-width="1.92" stroke-linecap="round" stroke-linejoin="round"/>
<path d="M38.7136 2.20339C38.7557 2.11839 38.8207 2.04684 38.9012 1.99682C38.9818 1.9468 39.0748 1.92029 39.1696 1.92029C39.2644 1.92029 39.3574 1.9468 39.438 1.99682C39.5185 2.04684 39.5835 2.11839 39.6256 2.20339L41.8432 6.69523C41.9893 6.99087 42.2049 7.24666 42.4716 7.44062C42.7383 7.63458 43.0481 7.76093 43.3744 7.80883L48.3338 8.53459C48.4277 8.5482 48.516 8.58784 48.5886 8.64902C48.6612 8.71019 48.7153 8.79047 48.7447 8.88077C48.774 8.97106 48.7775 9.06778 48.7548 9.15996C48.7321 9.25215 48.684 9.33614 48.616 9.40243L45.0294 12.8949C44.7929 13.1254 44.6159 13.4099 44.5138 13.724C44.4116 14.038 44.3873 14.3722 44.4429 14.6978L45.2896 19.6322C45.3062 19.7261 45.296 19.8228 45.2603 19.9112C45.2246 19.9997 45.1647 20.0763 45.0876 20.1323C45.0104 20.1884 44.919 20.2216 44.8239 20.2282C44.7287 20.2349 44.6336 20.2146 44.5494 20.1698L40.1162 17.8389C39.824 17.6855 39.4991 17.6054 39.1691 17.6054C38.8392 17.6054 38.5142 17.6855 38.2221 17.8389L33.7898 20.1698C33.7056 20.2143 33.6106 20.2344 33.5156 20.2276C33.4206 20.2209 33.3295 20.1876 33.2524 20.1316C33.1754 20.0756 33.1157 19.9991 33.08 19.9108C33.0443 19.8225 33.0341 19.726 33.0506 19.6322L33.8963 14.6987C33.9522 14.373 33.928 14.0386 33.8258 13.7244C33.7236 13.4101 33.5465 13.1255 33.3098 12.8949L29.7232 9.40339C29.6546 9.33718 29.6061 9.25305 29.583 9.16058C29.5599 9.06811 29.5633 8.97102 29.5927 8.88037C29.6221 8.78972 29.6764 8.70915 29.7494 8.64785C29.8224 8.58655 29.9111 8.54697 30.0054 8.53363L34.9638 7.80883C35.2905 7.7613 35.6007 7.63512 35.8678 7.44113C36.1348 7.24715 36.3508 6.99117 36.497 6.69523L38.7136 2.20339Z" fill="#FE9A00" stroke="#FE9A00" stroke-width="1.92" stroke-linecap="round" stroke-linejoin="round"/>
<path d="M66.362 2.2032C66.4041 2.11821 66.4691 2.04666 66.5497 1.99664C66.6302 1.94661 66.7232 1.9201 66.818 1.9201C66.9129 1.9201 67.0058 1.94661 67.0864 1.99664C67.167 2.04666 67.232 2.11821 67.274 2.2032L69.4916 6.69504C69.6377 6.99069 69.8534 7.24647 70.1201 7.44044C70.3868 7.6344 70.6966 7.76075 71.0228 7.80864L75.9822 8.5344C76.0762 8.54802 76.1645 8.58766 76.2371 8.64883C76.3097 8.71001 76.3637 8.79029 76.3931 8.88058C76.4225 8.97088 76.426 9.06759 76.4032 9.15978C76.3805 9.25197 76.3324 9.33596 76.2644 9.40224L72.6779 12.8947C72.4413 13.1252 72.2644 13.4097 72.1622 13.7238C72.06 14.0379 72.0357 14.3721 72.0913 14.6976L72.938 19.632C72.9546 19.7259 72.9445 19.8226 72.9088 19.9111C72.873 19.9995 72.8132 20.0761 72.736 20.1322C72.6588 20.1882 72.5675 20.2214 72.4723 20.2281C72.3772 20.2347 72.2821 20.2144 72.1979 20.1696L67.7646 17.8387C67.4725 17.6853 67.1475 17.6052 66.8176 17.6052C66.4876 17.6052 66.1626 17.6853 65.8705 17.8387L61.4382 20.1696C61.354 20.2142 61.2591 20.2342 61.1641 20.2274C61.0691 20.2207 60.9779 20.1874 60.9009 20.1314C60.8239 20.0754 60.7641 19.9989 60.7284 19.9106C60.6927 19.8223 60.6825 19.7258 60.699 19.632L61.5448 14.6986C61.6006 14.3729 61.5764 14.0385 61.4742 13.7242C61.372 13.4099 61.1949 13.1253 60.9582 12.8947L57.3716 9.4032C57.3031 9.33699 57.2545 9.25286 57.2314 9.16039C57.2084 9.06792 57.2117 8.97084 57.2412 8.88019C57.2706 8.78954 57.3249 8.70897 57.3978 8.64767C57.4708 8.58636 57.5595 8.54678 57.6539 8.53344L62.6123 7.80864C62.9389 7.76112 63.2491 7.63494 63.5162 7.44095C63.7833 7.24696 63.9992 6.99098 64.1454 6.69504L66.362 2.2032Z" fill="#FE9A00" stroke="#FE9A00" stroke-width="1.92" stroke-linecap="round" stroke-linejoin="round"/>
<g clip-path="url(#clip0_1036_2136)">
<path d="M94.0085 2.2032C94.0506 2.11821 94.1156 2.04666 94.1962 1.99664C94.2767 1.94661 94.3697 1.9201 94.4645 1.9201C94.5594 1.9201 94.6523 1.94661 94.7329 1.99664C94.8135 2.04666 94.8785 2.11821 94.9205 2.2032L97.1381 6.69504C97.2842 6.99069 97.4999 7.24647 97.7666 7.44044C98.0333 7.6344 98.343 7.76075 98.6693 7.80864L103.629 8.5344C103.723 8.54802 103.811 8.58766 103.884 8.64883C103.956 8.71001 104.01 8.79029 104.04 8.88058C104.069 8.97088 104.072 9.06759 104.05 9.15978C104.027 9.25197 103.979 9.33596 103.911 9.40224L100.324 12.8947C100.088 13.1252 99.9109 13.4097 99.8087 13.7238C99.7065 14.0379 99.6822 14.3721 99.7378 14.6976L100.585 19.632C100.601 19.7259 100.591 19.8226 100.555 19.9111C100.52 19.9995 100.46 20.0761 100.382 20.1322C100.305 20.1882 100.214 20.2214 100.119 20.2281C100.024 20.2347 99.9286 20.2144 99.8444 20.1696L95.4111 17.8387C95.119 17.6853 94.794 17.6052 94.464 17.6052C94.1341 17.6052 93.8091 17.6853 93.517 17.8387L89.0847 20.1696C89.0005 20.2142 88.9055 20.2342 88.8106 20.2274C88.7156 20.2207 88.6244 20.1874 88.5474 20.1314C88.4703 20.0754 88.4106 19.9989 88.3749 19.9106C88.3392 19.8223 88.329 19.7258 88.3455 19.632L89.1912 14.6986C89.2471 14.3729 89.2229 14.0385 89.1207 13.7242C89.0185 13.4099 88.8414 13.1253 88.6047 12.8947L85.0181 9.4032C84.9496 9.33699 84.901 9.25286 84.8779 9.16039C84.8549 9.06792 84.8582 8.97084 84.8876 8.88019C84.9171 8.78954 84.9713 8.70897 85.0443 8.64767C85.1173 8.58636 85.206 8.54678 85.3004 8.53344L90.2588 7.80864C90.5854 7.76112 90.8956 7.63494 91.1627 7.44095C91.4297 7.24696 91.6457 6.99098 91.7919 6.69504L94.0085 2.2032Z" fill="#FE9A00" stroke="#FE9A00" stroke-width="1.92" stroke-linecap="round" stroke-linejoin="round"/>
</g>
<path d="M121.658 2.20339C121.7 2.11839 121.765 2.04684 121.846 1.99682C121.926 1.9468 122.019 1.92029 122.114 1.92029C122.209 1.92029 122.302 1.9468 122.382 1.99682C122.463 2.04684 122.528 2.11839 122.57 2.20339L124.788 6.69523C124.934 6.99087 125.149 7.24666 125.416 7.44062C125.683 7.63458 125.992 7.76093 126.319 7.80883L131.278 8.53459C131.372 8.5482 131.46 8.58784 131.533 8.64902C131.606 8.71019 131.66 8.79047 131.689 8.88077C131.718 8.97106 131.722 9.06778 131.699 9.15996C131.676 9.25215 131.628 9.33614 131.56 9.40243L127.974 12.8949C127.737 13.1254 127.56 13.4099 127.458 13.724C127.356 14.038 127.332 14.3722 127.387 14.6978L128.234 19.6322C128.251 19.7261 128.24 19.8228 128.205 19.9112C128.169 19.9997 128.109 20.0763 128.032 20.1323C127.955 20.1884 127.863 20.2216 127.768 20.2282C127.673 20.2349 127.578 20.2146 127.494 20.1698L123.06 17.8389C122.768 17.6855 122.443 17.6054 122.113 17.6054C121.784 17.6054 121.459 17.6855 121.166 17.8389L116.734 20.1698C116.65 20.2143 116.555 20.2344 116.46 20.2276C116.365 20.2209 116.274 20.1876 116.197 20.1316C116.12 20.0756 116.06 19.9991 116.024 19.9108C115.989 19.8225 115.978 19.726 115.995 19.6322L116.841 14.6987C116.897 14.373 116.872 14.0386 116.77 13.7244C116.668 13.4101 116.491 13.1255 116.254 12.8949L112.668 9.40339C112.599 9.33718 112.55 9.25305 112.527 9.16058C112.504 9.06811 112.508 8.97102 112.537 8.88037C112.566 8.78972 112.621 8.70915 112.694 8.64785C112.767 8.58655 112.855 8.54697 112.95 8.53363L117.908 7.80883C118.235 7.7613 118.545 7.63512 118.812 7.44113C119.079 7.24715 119.295 6.99117 119.441 6.69523L121.658 2.20339Z" fill="#FEF3C6" stroke="#FEE685" stroke-width="1.92" stroke-linecap="round" stroke-linejoin="round"/>
<defs>
<clipPath id="clip0_1036_2136">
<rect width="23.04" height="23.04" fill="white" transform="translate(82.9438)"/>
</clipPath>
</defs>
</svg>
