<svg width="10" height="10" viewBox="0 0 10 10" fill="none" xmlns="http://www.w3.org/2000/svg">
<g clip-path="url(#clip0_1036_2153)">
<path d="M4.6454 0.92542C4.66307 0.889721 4.69037 0.859671 4.72421 0.838661C4.75805 0.817652 4.79709 0.806519 4.83692 0.806519C4.87676 0.806519 4.9158 0.817652 4.94964 0.838661C4.98348 0.859671 5.01078 0.889721 5.02844 0.92542L5.95984 2.81199C6.02119 2.93616 6.11177 3.04359 6.22378 3.12506C6.3358 3.20652 6.4659 3.25959 6.60294 3.2797L8.68587 3.58452C8.72534 3.59024 8.76242 3.60689 8.79292 3.63258C8.82342 3.65828 8.84612 3.692 8.85845 3.72992C8.87078 3.76784 8.87226 3.80846 8.86271 3.84718C8.85316 3.8859 8.83297 3.92118 8.80441 3.94902L7.29806 5.41586C7.19872 5.51267 7.12439 5.63217 7.08147 5.76407C7.03856 5.89598 7.02834 6.03634 7.0517 6.17307L7.40733 8.24552C7.41429 8.28496 7.41003 8.32558 7.39503 8.36272C7.38002 8.39986 7.35488 8.43204 7.32247 8.45558C7.29006 8.47912 7.25168 8.49308 7.21172 8.49586C7.17176 8.49864 7.13182 8.49013 7.09646 8.47131L5.23448 7.49234C5.11179 7.42792 4.9753 7.39426 4.83672 7.39426C4.69815 7.39426 4.56165 7.42792 4.43897 7.49234L2.57739 8.47131C2.54204 8.49002 2.50215 8.49844 2.46226 8.4956C2.42236 8.49277 2.38406 8.47879 2.35172 8.45527C2.31937 8.43174 2.29428 8.39961 2.27929 8.36253C2.2643 8.32545 2.26002 8.28491 2.26693 8.24552L2.62215 6.17347C2.64561 6.03668 2.63545 5.89623 2.59253 5.76424C2.54961 5.63225 2.47522 5.51269 2.37579 5.41586L0.869437 3.94942C0.840646 3.92161 0.820244 3.88628 0.810555 3.84744C0.800865 3.8086 0.802279 3.76783 0.814633 3.72975C0.826988 3.69168 0.849788 3.65784 0.880435 3.63209C0.911082 3.60635 0.948344 3.58972 0.987978 3.58412L3.07051 3.2797C3.2077 3.25975 3.33798 3.20675 3.45015 3.12527C3.56232 3.0438 3.65301 2.93629 3.71442 2.81199L4.6454 0.92542Z" stroke="#A6A09B" stroke-width="0.8064" stroke-linecap="round" stroke-linejoin="round"/>
</g>
<defs>
<clipPath id="clip0_1036_2153">
<rect width="9.6768" height="9.6768" fill="white"/>
</clipPath>
</defs>
</svg>
