<svg width="40" height="40" viewBox="0 0 40 40" fill="none" xmlns="http://www.w3.org/2000/svg">
<path d="M0 10C0 4.47715 4.47715 0 10 0H30C35.5228 0 40 4.47715 40 10V30C40 35.5228 35.5228 40 30 40H10C4.47715 40 0 35.5228 0 30V10Z" fill="#F1F5F9"/>
<g clip-path="url(#clip0_303_1413)">
<path d="M29.5817 15.1549C29.4687 14.7293 29.2459 14.3409 28.9355 14.0285C28.6252 13.7161 28.2382 13.4907 27.8133 13.3749C26.2542 12.9541 20 12.9541 20 12.9541C20 12.9541 13.7458 12.9541 12.1858 13.3749C11.7612 13.4909 11.3744 13.7164 11.0642 14.0288C10.7541 14.3411 10.5313 14.7295 10.4183 15.1549C10 16.7249 10 19.9999 10 19.9999C10 19.9999 10 23.2749 10.4183 24.8449C10.5313 25.2705 10.7541 25.659 11.0645 25.9714C11.3748 26.2838 11.7618 26.5092 12.1867 26.6249C13.7458 27.0458 20 27.0458 20 27.0458C20 27.0458 26.2542 27.0458 27.8142 26.6249C28.2391 26.5092 28.6261 26.2839 28.9364 25.9715C29.2468 25.6591 29.4696 25.2706 29.5825 24.8449C30 23.2749 30 19.9999 30 19.9999C30 19.9999 30 16.7249 29.5817 15.1549ZM17.9542 22.9733V17.0266L23.1817 19.9999L17.9542 22.9733Z" fill="#64748B"/>
</g>
<defs>
<clipPath id="clip0_303_1413">
<rect width="20" height="20" fill="white" transform="translate(10 10)"/>
</clipPath>
</defs>
</svg>
